<?xml version="1.0" encoding="UTF-8" standalone="no"?>
<!-- Created with Inkscape (http://www.inkscape.org/) -->
<svg id="svg2" xmlns:rdf="http://www.w3.org/1999/02/22-rdf-syntax-ns#" xmlns="http://www.w3.org/2000/svg" height="106.84" width="382.68" version="1.1" xmlns:cc="http://creativecommons.org/ns#" xmlns:xlink="http://www.w3.org/1999/xlink" xmlns:dc="http://purl.org/dc/elements/1.1/">
 <defs id="defs4">
  <linearGradient id="linearGradient4063">
   <stop id="stop4065" stop-color="#cccc9a" offset="0"/>
   <stop id="stop4067" stop-color="#666" offset="1"/>
  </linearGradient>
  <filter id="filter4051" color-interpolation-filters="sRGB">
   <feGaussianBlur id="feGaussianBlur4053" stdDeviation="1.1898616"/>
  </filter>
  <linearGradient id="linearGradient4069" y2="254.79" xlink:href="#linearGradient4063" gradientUnits="userSpaceOnUse" x2="426.88" y1="237.15" x1="426.88"/>
 </defs>
 <g id="layer1" font-size="112.7410202px" font-weight="normal" transform="translate(-226.42217,-407.22474)" font-style="oblique" font-stretch="normal" font-variant="normal" font-family="Kleymissky">
  <g id="g4021" style="letter-spacing:0px;text-anchor:start;word-spacing:0px;text-align:start;" line-height="125%" transform="translate(-0.65965825,209.11166)" filter="url(#filter4051)" stroke="#000" fill="#000">
   <path id="path4023" d="m237.88,262.9c0.0698-1.3238,0.24372-3.3982,0.52166-6.2233,0.27791-2.8251,0.80019-6.9138,1.5668-12.266l6.8258-40.474-1.5947-0.33822,0.21465-0.29977c1.0431,0.0429,3.0284,0.0841,5.956,0.12353,2.9275,0.0396,5.2951,0.0608,7.1028,0.0635,3.6349,0.0923,6.5247,1.534,8.6693,4.3252,2.1446,2.7913,3.242,6.3789,3.2924,10.763-0.11611,5.8476-1.6978,10.714-4.7452,14.6-3.0474,3.8858-6.8641,5.9026-11.45,6.0506l-10.697,0.27373-0.28219,1.286c4.0936,1.3178,7.9926,3.7578,11.697,7.3199,3.7046,3.5622,7.4586,7.6476,11.262,12.256,7.0094,8.5296,14.458,15.633,22.347,21.309,7.8888,5.6767,16.682,8.6237,26.379,8.841,3.8203-0.0639,7.8488-0.89652,12.086-2.4978,4.2366-1.6013,7.8408-3.5879,10.813-5.9597l-0.38895-0.55525c-2.521,1.7411-5.4326,3.0417-8.735,3.9019-3.3026,0.86013-6.5104,1.2894-9.6234,1.2878-8.8126-0.1413-16.814-2.4715-24.005-6.9905-7.1906-4.5191-13.996-10.379-20.418-17.581-3.9233-4.4462-8.0708-8.5893-12.442-12.429-4.3718-3.84-9.4504-6.824-15.236-8.9519,2.7109,0.0601,5.4219,0.1202,8.133,0.18027,6.2584-0.15817,11.465-2.314,15.62-6.4675,4.1546-4.1534,6.3108-9.3554,6.4687-15.606-0.18127-5.0062-1.988-9.1272-5.4203-12.363-3.4324-3.2356-7.4029-4.9098-11.912-5.0226-1.5778,0.002-3.167,0.0287-4.7677,0.0799-1.6008,0.0514-3.2811,0.11561-5.041,0.19266-1.1349,0.0481-2.3492,0.0967-3.643,0.14577l-15.989,0.14532v0.78918l7.7286,0.33821-3.6654,41.411c-0.90173,6.3622-1.5995,10.758-2.0934,13.188-0.49388,2.4296-0.93229,4.185-1.3152,5.2661z"/>
   <path id="path4025" d="m282.86,251.62,0-0.5637c0.0282-4.8008,0.93009-8.6152,2.7058-11.443,1.7756-2.8279,4.2559-4.2747,7.4408-4.3405,1.7652,0.0437,3.2641,0.63825,4.4966,1.7838s1.8757,2.5803,1.9295,4.3042c-0.0705,2.9289-1.5925,5.3293-4.566,7.2012-2.9735,1.872-6.9758,2.8913-12.007,3.0581zm0.11274,0.67644c6.2265-0.16441,11.53-1.273,15.91-3.3258,4.3804-2.0528,6.668-4.7397,6.863-8.0609-0.0941-2.0431-1.2406-3.7435-3.4393-5.1012-2.1988-1.3577-4.8855-2.0624-8.0601-2.1141-5.0121,0.12768-9.1834,1.8674-12.514,5.2192s-5.0593,7.5497-5.1861,12.594c0.11524,3.352,1.5952,6.1418,4.44,8.3692s6.3629,3.3836,10.554,3.4684c2.9334-0.0567,5.6454-0.80894,8.1361-2.2567,2.4906-1.4478,4.927-3.251,7.3092-5.4096l-0.33822-0.33822c-2.1293,1.8139-4.3428,3.2569-6.6405,4.329-2.2978,1.0721-4.7818,1.6208-7.4519,1.6462-2.5934-0.0571-4.7791-0.923-6.5571-2.5976s-2.7866-3.8151-3.0258-6.4216z"/>
   <path id="path4027" d="m332.15,249.14c-0.70466,3.4855-2.2548,6.4356-4.6505,8.85-2.3957,2.4145-4.7914,3.6734-7.1871,3.7768-2.4615-0.0775-4.2465-1.1344-5.3551-3.1708s-1.6535-4.5871-1.6347-7.6522c-0.00001-4.7961,0.78916-8.5917,2.3675-11.387,1.5783-2.795,3.9459-4.223,7.1026-4.2841,1.1084,0.006,2.0906,0.0567,2.9469,0.15235,0.85623,0.0957,1.5995,0.20117,2.2297,0.31631,1.0339,0.19909,2.0517,0.30592,3.0533,0.32052h1.1274zm4.8478-0.11274,4.0586-17.475-0.33822-0.11274c-0.73754,0.93013-2.0528,1.7193-3.9459,2.3675-1.8931,0.64828-3.6594,0.9865-5.2988,1.0146-0.36198-0.003-0.80418-0.0492-1.3266-0.13863-0.52247-0.0893-1.0886-0.20343-1.6985-0.34232-0.69914-0.16101-1.443-0.30707-2.2315-0.43817-0.78858-0.13105-1.5166-0.20047-2.1842-0.20827-4.6012,0.0728-8.533,1.7029-11.795,4.8901-3.2624,3.1873-4.9676,7.4948-5.1156,12.923,0.11039,3.354,1.327,6.1443,3.6499,8.3709s5.0897,3.3822,8.3005,3.4667c2.3933-0.0423,4.6246-0.77508,6.6939-2.1984,2.0692-1.4233,3.8214-3.2835,5.2565-5.5806l-1.4656,8.5682c-0.59504,3.5471-1.2965,8.0901-2.1045,13.629-0.80799,5.5388-1.5345,10.633-2.1796,15.282-0.64514,4.6494-1.0209,7.4136-1.1274,8.2926l0.22547,0.11274c0.7234-0.94423,1.6723-1.7898,2.8467-2.5366,1.1743-0.74694,2.9688-1.1415,5.3833-1.1838h6.6516v-0.5637l-8.4555-0.22547c0.096-1.6299,0.36742-4.6084,0.81423-8.9357,0.44675-4.3273,0.94364-8.7923,1.4907-13.395,0.54696-4.6028,1.0188-8.1326,1.4155-10.589z"/>
   <path id="path4029" d="m370.94,249.03,4.7351-14.994-0.22548-0.11274c-0.96067,0.10807-1.8579,0.17383-2.6917,0.19729-0.83384,0.0235-1.5901,0.0329-2.2689,0.0282h-6.2007v0.56369l3.9459,0.22548-0.62514,4.1458c-1.1616,6.2956-3.0512,11.518-5.6687,15.667-2.6176,4.1494-5.7808,6.3011-9.4897,6.4552-1.1032-0.01-1.872-0.33487-2.3065-0.97504-0.43451-0.64017-0.64275-1.5364-0.62473-2.6887-0.0112-1.0541,0.1015-2.2756,0.33822-3.6644l1.0147-5.9752c0.60934-3.6306,0.9134-6.4672,0.91218-8.5097-0.002-2.1794-0.34356-3.6835-1.0262-4.5124-0.68262-0.82883-1.6969-1.2232-3.0427-1.1831-0.86904,0.0235-1.9213,0.34295-3.1567,0.95829-1.2354,0.6154-2.5132,1.3858-3.8331,2.3112l0.45095,0.45096c0.89487-0.50965,1.6981-0.89954,2.4098-1.1697,0.71167-0.27007,1.374-0.4063,1.987-0.40867,0.77424,0.00002,1.3288,0.19086,1.6636,0.57253,0.33483,0.38171,0.49823,0.95427,0.49019,1.7177-0.0267,1.0835-0.27437,2.5539-0.74306,4.4114s-0.99831,3.795-1.5888,5.8125c-0.50995,1.7506-0.94993,3.3441-1.32,4.7805-0.37004,1.4364-0.5639,2.5115-0.5816,3.2253,0.11864,2.2397,1.0648,3.9612,2.8383,5.1644,1.7736,1.2032,3.6627,1.8113,5.6674,1.8241,2.9552-0.0649,5.6256-1.3487,8.0112-3.8514s4.3927-5.8346,6.0213-9.9957c-0.40561,2.4675-0.60763,4.5874-0.60609,6.3597,0.005,2.5742,0.4171,4.4685,1.2374,5.6828,0.82021,1.2143,2.0202,1.8158,3.6001,1.8046,1.5783-0.0869,3.5794-0.89957,6.0034-2.438,2.4239-1.5384,4.9323-3.2812,7.5254-5.2283l-0.33822-0.33822c-2.1304,1.576-4.1831,2.9336-6.1584,4.0727-1.9753,1.1392-3.6054,1.7357-4.8901,1.7898-0.91126,0-1.5729-0.31991-1.985-0.95973-0.4121-0.63981-0.61479-1.5995-0.60805-2.8792,0.007-0.9993,0.11435-2.1937,0.32271-3.5832,0.20831-1.3895,0.47653-2.9741,0.80468-4.7538z"/>
   <path id="path4031" d="m389.7,222.69,4.9324,0c0.87322-0.0175,1.6086-0.26694,2.206-0.74816,0.59743-0.48115,0.95847-1.0886,1.0831-1.8223l0.66796-4.0051h-4.921c-1.0195-0.0213-1.8256,0.252-2.4182,0.8198-0.59264,0.5679-0.98444,1.5582-1.1754,2.9711zm-4.5181,26.457c-0.33823,1.8532-0.59189,3.502-0.761,4.9464-0.16911,1.4445-0.25367,2.7269-0.25366,3.8472,0.0282,1.8532,0.47914,3.2201,1.3529,4.1009,0.87372,0.88078,2.0011,1.3176,3.3822,1.3106,1.6394-0.0869,3.8848-0.89956,6.7362-2.438s5.6041-3.2812,8.2582-5.2283l-0.33822-0.33822c-2.1444,1.5431-4.2536,2.7692-6.3275,3.6781-2.074,0.90897-3.7604,1.374-5.0592,1.3952-1.2167,0.0329-2.0528-0.1738-2.5085-0.62006-0.45567-0.44626-0.67175-1.3294-0.64825-2.6494,0.007-1.0146,0.10569-2.1984,0.29595-3.5513,0.19023-1.3529,0.42981-2.8748,0.71871-4.566l5.5242-17.475-0.22548-0.11274c-0.74222,1.0382-1.7663,2.0904-3.0722,3.1567-1.3059,1.0664-2.8373,1.6676-4.5941,1.8038h-7.5536v0.56369l5.9752,0.67644z"/>
   <path id="path4033" d="m406.87,251.62,0-0.5637c0.0282-4.8008,0.9301-8.6152,2.7058-11.443,1.7756-2.8279,4.2559-4.2747,7.4408-4.3405,1.7652,0.0437,3.2641,0.63825,4.4966,1.7838s1.8757,2.5803,1.9295,4.3042c-0.0705,2.9289-1.5925,5.3293-4.566,7.2012-2.9735,1.872-6.9758,2.8913-12.007,3.0581zm0.11274,0.67644c6.2265-0.16441,11.53-1.273,15.91-3.3258,4.3804-2.0528,6.668-4.7397,6.863-8.0609-0.0941-2.0431-1.2406-3.7435-3.4394-5.1012s-4.8855-2.0624-8.0601-2.1141c-5.0121,0.12768-9.1834,1.8674-12.514,5.2192s-5.0593,7.5497-5.1861,12.594c0.11524,3.352,1.5952,6.1418,4.44,8.3692s6.3629,3.3836,10.554,3.4684c2.9334-0.0567,5.6454-0.80894,8.1361-2.2567,2.4906-1.4478,4.927-3.251,7.3092-5.4096l-0.33822-0.33822c-2.1293,1.8139-4.3428,3.2569-6.6405,4.329-2.2978,1.0721-4.7818,1.6208-7.4519,1.6462-2.5934-0.0571-4.7791-0.923-6.5571-2.5976s-2.7866-3.8151-3.0258-6.4216z"/>
   <path id="path4035" d="m435.03,253.54c1.8268,0.0476,3.3471,0.69604,4.5611,1.9454,1.2139,1.2493,1.844,2.814,1.8902,4.6941,0.002,0.63949-0.0576,1.2473-0.17949,1.8233-0.12194,0.57606-0.31957,1.1517-0.59288,1.727,0.92578-0.0234,1.6963-0.34275,2.3115-0.95795,0.61518-0.6152,0.9345-1.3857,0.95794-2.3115-0.063-2.2786-0.92151-4.1746-2.5755-5.6879s-3.7255-2.2987-6.2146-2.3562c-2.4684,0.0581-4.4958,0.85058-6.0821,2.3776s-2.4066,3.4401-2.4608,5.7394c0.10861,3.1286,1.5887,5.7325,4.4402,7.8115s6.4229,3.1581,10.714,3.2373c4.8628-0.0858,8.9098-1.2551,12.141-3.5078,3.2314-2.2528,4.9086-5.0743,5.0318-8.4644-0.25745-4.6995-1.9752-8.254-5.1532-10.663-3.1781-2.4094-6.2717-4.076-9.2807-4.9996-1.9251-0.65323-3.5389-1.3179-4.8415-1.9939-1.3026-0.67599-1.98-1.4893-2.0323-2.4399,0.0754-1.3739,0.80926-2.4216,2.2015-3.143,1.3922-0.72133,2.9904-1.0846,4.7944-1.09,1.5267,0.0893,3.1238,0.64359,4.7914,1.6629,1.6676,1.0194,3.0392,1.9683,4.115,2.8467l0.33822,0.11274,3.2694-8.3427-0.45096-0.22548c-0.35704,0.98884-0.88315,1.8297-1.5784,2.5225-0.69526,0.69291-1.7851,1.0546-3.2694,1.0851-0.35923-0.005-0.78472-0.0579-1.2765-0.15973-0.49178-0.10178-1.023-0.22399-1.5935-0.36665-0.7016-0.17754-1.4174-0.33873-2.1475-0.48358-0.73013-0.1448-1.4252-0.22152-2.085-0.23017-3.1684-0.009-5.814,0.5484-7.9366,1.6708-2.1226,1.1225-3.2253,2.8619-3.3081,5.2182,0.14205,2.6695,1.3687,4.7305,3.68,6.1829,2.3112,1.4525,4.8547,2.6422,7.6305,3.5693,2.1803,0.73175,4.3156,1.9227,6.4058,3.5727,2.0902,1.6501,3.2122,3.9149,3.3661,6.7943-0.0902,2.6317-1.3199,4.822-3.6888,6.5708-2.369,1.7488-5.336,2.6565-8.9009,2.7231-4.0331-0.0691-7.395-1.0113-10.086-2.8266-2.6908-1.8152-4.0881-4.0887-4.1918-6.8205,0.0466-1.9302,0.74692-3.5366,2.101-4.8192s3.0825-1.9484,5.1851-1.9972z"/>
   <path id="path4037" d="m487.56,255.34c-2.0035,1.7287-4.1409,3.1473-6.4121,4.2559-2.2713,1.1086-4.8314,1.6817-7.6804,1.7193-2.3652-0.0399-4.3146-0.97472-5.8484-2.8044-1.5337-1.8297-2.3276-4.3146-2.3816-7.4549,0.0822-4.4321,0.96063-8.0538,2.6353-10.865,1.6746-2.8114,3.6523-4.2629,5.9329-4.3546,1.5009,0.0453,3.013,0.53056,4.5361,1.4556,1.5231,0.92514,3.0174,2.0183,4.4831,3.2794l0.22548,0.11274,3.3822-9.2446-0.45096-0.11274c-0.36173,0.98884-0.90664,1.8297-1.6347,2.5225-0.72814,0.69291-1.8367,1.0546-3.3258,1.0851-0.39035-0.004-0.82863-0.0619-1.3149-0.1738-0.48627-0.1118-0.9906-0.25331-1.513-0.42451-0.50309-0.16546-1.035-0.31207-1.5958-0.43984-0.56082-0.1277-1.078-0.19503-1.5516-0.20198-4.7116,0.0728-8.5353,1.7029-11.471,4.8901-2.9359,3.1873-4.4485,7.4948-4.5378,12.923,0.0752,3.6006,1.3341,6.4614,3.7768,8.5823s5.6182,3.206,9.5265,3.2554c3.2835-0.0798,6.1584-0.87843,8.6246-2.3957s4.7773-3.2741,6.9335-5.2706z"/>
   <path id="path4039" d="m493.6,251.62,0-0.5637c0.0282-4.8008,0.93009-8.6152,2.7058-11.443,1.7756-2.8279,4.2559-4.2747,7.4408-4.3405,1.7652,0.0437,3.2641,0.63825,4.4966,1.7838s1.8757,2.5803,1.9295,4.3042c-0.0705,2.9289-1.5925,5.3293-4.566,7.2012-2.9735,1.872-6.9758,2.8913-12.007,3.0581zm0.11274,0.67644c6.2265-0.16441,11.53-1.273,15.91-3.3258,4.3804-2.0528,6.668-4.7397,6.863-8.0609-0.0941-2.0431-1.2406-3.7435-3.4393-5.1012-2.1988-1.3577-4.8855-2.0624-8.0601-2.1141-5.0121,0.12768-9.1834,1.8674-12.514,5.2192s-5.0593,7.5497-5.1861,12.594c0.11524,3.352,1.5953,6.1418,4.44,8.3692,2.8448,2.2274,6.3629,3.3836,10.554,3.4684,2.9334-0.0567,5.6454-0.80894,8.1361-2.2567,2.4906-1.4478,4.927-3.251,7.3092-5.4096l-0.33822-0.33822c-2.1293,1.8139-4.3428,3.2569-6.6405,4.329-2.2978,1.0721-4.7818,1.6208-7.4519,1.6462-2.5934-0.0571-4.7791-0.923-6.5571-2.5976s-2.7866-3.8151-3.0258-6.4216z"/>
   <path id="path4041" d="m524.4,262.9c0.013-0.20088,0.0804-0.83409,0.20237-1.8996,0.1219-1.0656,0.27539-2.334,0.46047-3.8053,1.2558-6.1414,3.2702-11.27,6.0431-15.387,2.7729-4.1166,5.9867-6.2554,9.6413-6.4164,0.98239,0.054,1.7033,0.62091,2.1628,1.7009,0.45938,1.08,0.68664,2.3496,0.68178,3.8087-0.001,0.89861-0.0851,1.7678-0.25152,2.6077l-1.1274,5.637c-0.74738,3.6917-1.1332,6.6403-1.1574,8.8457-0.0136,1.8222,0.30924,3.1723,0.96866,4.0502,0.65935,0.87794,1.7369,1.3144,3.2327,1.3092,1.5666-0.0798,3.5066-0.87843,5.8202-2.3957,2.3135-1.5173,4.7327-3.2741,7.2576-5.2706l-0.22548-0.33822c-2.1444,1.576-4.2536,2.9336-6.3275,4.0727-2.074,1.1391-3.7604,1.7357-5.0592,1.7897-0.57581,0-0.99065-0.14785-1.2446-0.44356-0.25395-0.2957-0.37829-0.73926-0.37303-1.3307,0.005-0.96031,0.23514-2.3109,0.6897-4.0518,0.45449-1.7409,1.102-3.8575,1.9425-6.3498,0.45128-1.3304,0.87684-2.7694,1.2767-4.3169,0.39977-1.5475,0.61307-2.8143,0.63989-3.8003-0.0353-2.3464-0.81035-4.2207-2.3252-5.6229-1.515-1.4022-3.5584-2.1209-6.1302-2.1561-3.1188,0.0851-5.9698,1.5552-8.553,4.4104s-4.7303,6.5853-6.4414,11.19l0.45096-16.39-0.22548-0.11274c-0.42513,0.94893-1.0123,1.8133-1.7616,2.593-0.74926,0.77981-1.8156,1.1932-3.199,1.2401h-5.637v0.5637l5.5242,0.22548v12.289c-0.81737,4.8126-1.4374,8.1807-1.8602,10.104-0.42278,1.9236-0.81737,3.2906-1.1838,4.1009z"/>
   <path id="path4043" d="m561,236.52-2.142,12.627c-0.23018,1.468-0.41808,2.8162-0.56369,4.0445-0.14563,1.2284-0.22079,2.3229-0.22548,3.2835,0.0329,2.1021,0.64354,3.7322,1.832,4.8901s2.7574,1.7451,4.7069,1.7616c2.1679-0.0822,4.4556-0.87608,6.863-2.3816s4.7797-3.2295,7.1167-5.1719l-0.33822-0.33822c-2.1092,1.5713-4.2606,2.9101-6.4543,4.0164-2.1938,1.1063-3.9506,1.684-5.2706,1.7334-2.3863,0.0188-3.5889-1.7099-3.6077-5.186,0.005-0.90895,0.0798-1.9377,0.22548-3.0862,0.14561-1.1485,0.33351-2.3746,0.56369-3.6781,0.40163-2.297,0.89486-4.4673,1.4797-6.5107,0.58482-2.0434,1.219-4.0445,1.9025-6.0034h10.936l0.33822-1.5784h-10.823c0.86667-2.3816,1.9518-5.2283,3.2554-8.54,1.3035-3.3117,2.3605-5.651,3.1708-7.018h-0.22548-1.5784c-2.1039-0.003-3.9308,0.29141-5.4809,0.88337-1.5501,0.59205-2.4665,1.5002-2.7491,2.7243l-2.7058,11.95h-7.5536l-0.22548,1.5784z"/>
   <path id="path4045" d="m582.45,253.54c1.8268,0.0476,3.3471,0.69604,4.5611,1.9454,1.2139,1.2493,1.844,2.814,1.8902,4.6941,0.002,0.63949-0.0576,1.2473-0.17949,1.8233-0.12194,0.57606-0.31957,1.1517-0.59288,1.727,0.92578-0.0234,1.6963-0.34275,2.3115-0.95795,0.61518-0.6152,0.9345-1.3857,0.95794-2.3115-0.063-2.2786-0.92151-4.1746-2.5755-5.6879s-3.7255-2.2987-6.2146-2.3562c-2.4684,0.0581-4.4958,0.85058-6.0821,2.3776s-2.4066,3.4401-2.4608,5.7394c0.10861,3.1286,1.5887,5.7325,4.4402,7.8115s6.4229,3.1581,10.714,3.2373c4.8628-0.0858,8.9098-1.2551,12.141-3.5078,3.2314-2.2528,4.9086-5.0743,5.0318-8.4644-0.25745-4.6995-1.9752-8.254-5.1532-10.663-3.1781-2.4094-6.2717-4.076-9.2807-4.9996-1.9251-0.65323-3.5389-1.3179-4.8415-1.9939-1.3026-0.67599-1.98-1.4893-2.0323-2.4399,0.0754-1.3739,0.80926-2.4216,2.2015-3.143,1.3922-0.72133,2.9904-1.0846,4.7944-1.09,1.5267,0.0893,3.1238,0.64359,4.7914,1.6629,1.6676,1.0194,3.0392,1.9683,4.115,2.8467l0.33821,0.11274,3.2694-8.3427-0.45096-0.22548c-0.35704,0.98884-0.88315,1.8297-1.5784,2.5225-0.69526,0.69291-1.7851,1.0546-3.2694,1.0851-0.35923-0.005-0.78472-0.0579-1.2765-0.15973-0.49178-0.10178-1.023-0.22399-1.5935-0.36665-0.7016-0.17754-1.4174-0.33873-2.1475-0.48358-0.73013-0.1448-1.4252-0.22152-2.085-0.23017-3.1684-0.009-5.814,0.5484-7.9366,1.6708-2.1226,1.1225-3.2253,2.8619-3.3081,5.2182,0.14205,2.6695,1.3687,4.7305,3.68,6.1829,2.3112,1.4525,4.8547,2.6422,7.6305,3.5693,2.1803,0.73175,4.3156,1.9227,6.4058,3.5727,2.0902,1.6501,3.2122,3.9149,3.3661,6.7943-0.0903,2.6317-1.3199,4.822-3.6888,6.5708-2.369,1.7488-5.336,2.6565-8.9009,2.7231-4.0331-0.0691-7.395-1.0113-10.086-2.8266-2.6908-1.8152-4.0881-4.0887-4.1918-6.8205,0.0466-1.9302,0.74692-3.5366,2.101-4.8192s3.0825-1.9484,5.1851-1.9972z"/>
  </g>
  <g id="text3992" style="letter-spacing:0px;text-anchor:start;word-spacing:0px;text-align:start;" line-height="125%" transform="translate(1.3193172,207.13268)" fill="url(#linearGradient4069)">
   <path id="path3997" d="m237.88,262.9c0.0698-1.3238,0.24372-3.3982,0.52166-6.2233,0.27791-2.8251,0.80019-6.9138,1.5668-12.266l6.8258-40.474-1.5947-0.33822,0.21465-0.29977c1.0431,0.0429,3.0284,0.0841,5.956,0.12353,2.9275,0.0396,5.2951,0.0608,7.1028,0.0635,3.6349,0.0923,6.5247,1.534,8.6693,4.3252,2.1446,2.7913,3.242,6.3789,3.2924,10.763-0.11611,5.8476-1.6978,10.714-4.7452,14.6-3.0474,3.8858-6.8641,5.9026-11.45,6.0506l-10.697,0.27373-0.28219,1.286c4.0936,1.3178,7.9926,3.7578,11.697,7.3199,3.7046,3.5622,7.4586,7.6476,11.262,12.256,7.0094,8.5296,14.458,15.633,22.347,21.309,7.8888,5.6767,16.682,8.6237,26.379,8.841,3.8203-0.0639,7.8488-0.89652,12.086-2.4978,4.2366-1.6013,7.8408-3.5879,10.813-5.9597l-0.38895-0.55525c-2.521,1.7411-5.4326,3.0417-8.735,3.9019-3.3026,0.86013-6.5104,1.2894-9.6234,1.2878-8.8126-0.1413-16.814-2.4715-24.005-6.9905-7.1906-4.5191-13.996-10.379-20.418-17.581-3.9233-4.4462-8.0708-8.5893-12.442-12.429-4.3718-3.84-9.4504-6.824-15.236-8.9519,2.7109,0.0601,5.4219,0.1202,8.133,0.18027,6.2584-0.15817,11.465-2.314,15.62-6.4675,4.1546-4.1534,6.3108-9.3554,6.4687-15.606-0.18127-5.0062-1.988-9.1272-5.4203-12.363-3.4324-3.2356-7.4029-4.9098-11.912-5.0226-1.5778,0.002-3.167,0.0287-4.7677,0.0799-1.6008,0.0514-3.2811,0.11561-5.041,0.19266-1.1349,0.0481-2.3492,0.0967-3.643,0.14577l-15.989,0.14532v0.78918l7.7286,0.33821-3.6654,41.411c-0.90173,6.3622-1.5995,10.758-2.0934,13.188-0.49388,2.4296-0.93229,4.185-1.3152,5.2661z"/>
   <path id="path3999" d="m282.86,251.62,0-0.5637c0.0282-4.8008,0.93009-8.6152,2.7058-11.443,1.7756-2.8279,4.2559-4.2747,7.4408-4.3405,1.7652,0.0437,3.2641,0.63825,4.4966,1.7838s1.8757,2.5803,1.9295,4.3042c-0.0705,2.9289-1.5925,5.3293-4.566,7.2012-2.9735,1.872-6.9758,2.8913-12.007,3.0581zm0.11274,0.67644c6.2265-0.16441,11.53-1.273,15.91-3.3258,4.3804-2.0528,6.668-4.7397,6.863-8.0609-0.0941-2.0431-1.2406-3.7435-3.4393-5.1012-2.1988-1.3577-4.8855-2.0624-8.0601-2.1141-5.0121,0.12768-9.1834,1.8674-12.514,5.2192s-5.0593,7.5497-5.1861,12.594c0.11524,3.352,1.5952,6.1418,4.44,8.3692s6.3629,3.3836,10.554,3.4684c2.9334-0.0567,5.6454-0.80894,8.1361-2.2567,2.4906-1.4478,4.927-3.251,7.3092-5.4096l-0.33822-0.33822c-2.1293,1.8139-4.3428,3.2569-6.6405,4.329-2.2978,1.0721-4.7818,1.6208-7.4519,1.6462-2.5934-0.0571-4.7791-0.923-6.5571-2.5976s-2.7866-3.8151-3.0258-6.4216z"/>
   <path id="path4001" d="m332.15,249.14c-0.70466,3.4855-2.2548,6.4356-4.6505,8.85-2.3957,2.4145-4.7914,3.6734-7.1871,3.7768-2.4615-0.0775-4.2465-1.1344-5.3551-3.1708s-1.6535-4.5871-1.6347-7.6522c-0.00001-4.7961,0.78916-8.5917,2.3675-11.387,1.5783-2.795,3.9459-4.223,7.1026-4.2841,1.1084,0.006,2.0906,0.0567,2.9469,0.15235,0.85623,0.0957,1.5995,0.20117,2.2297,0.31631,1.0339,0.19909,2.0517,0.30592,3.0533,0.32052h1.1274zm4.8478-0.11274,4.0586-17.475-0.33822-0.11274c-0.73754,0.93013-2.0528,1.7193-3.9459,2.3675-1.8931,0.64828-3.6594,0.9865-5.2988,1.0146-0.36198-0.003-0.80418-0.0492-1.3266-0.13863-0.52247-0.0893-1.0886-0.20343-1.6985-0.34232-0.69914-0.16101-1.443-0.30707-2.2315-0.43817-0.78858-0.13105-1.5166-0.20047-2.1842-0.20827-4.6012,0.0728-8.533,1.7029-11.795,4.8901-3.2624,3.1873-4.9676,7.4948-5.1156,12.923,0.11039,3.354,1.327,6.1443,3.6499,8.3709s5.0897,3.3822,8.3005,3.4667c2.3933-0.0423,4.6246-0.77508,6.6939-2.1984,2.0692-1.4233,3.8214-3.2835,5.2565-5.5806l-1.4656,8.5682c-0.59504,3.5471-1.2965,8.0901-2.1045,13.629-0.80799,5.5388-1.5345,10.633-2.1796,15.282-0.64514,4.6494-1.0209,7.4136-1.1274,8.2926l0.22547,0.11274c0.7234-0.94423,1.6723-1.7898,2.8467-2.5366,1.1743-0.74694,2.9688-1.1415,5.3833-1.1838h6.6516v-0.5637l-8.4555-0.22547c0.096-1.6299,0.36742-4.6084,0.81423-8.9357,0.44675-4.3273,0.94364-8.7923,1.4907-13.395,0.54696-4.6028,1.0188-8.1326,1.4155-10.589z"/>
   <path id="path4003" d="m370.94,249.03,4.7351-14.994-0.22548-0.11274c-0.96067,0.10807-1.8579,0.17383-2.6917,0.19729-0.83384,0.0235-1.5901,0.0329-2.2689,0.0282h-6.2007v0.56369l3.9459,0.22548-0.62514,4.1458c-1.1616,6.2956-3.0512,11.518-5.6687,15.667-2.6176,4.1494-5.7808,6.3011-9.4897,6.4552-1.1032-0.01-1.872-0.33487-2.3065-0.97504-0.43451-0.64017-0.64275-1.5364-0.62473-2.6887-0.0112-1.0541,0.1015-2.2756,0.33822-3.6644l1.0147-5.9752c0.60934-3.6306,0.9134-6.4672,0.91218-8.5097-0.002-2.1794-0.34356-3.6835-1.0262-4.5124-0.68262-0.82883-1.6969-1.2232-3.0427-1.1831-0.86904,0.0235-1.9213,0.34295-3.1567,0.95829-1.2354,0.6154-2.5132,1.3858-3.8331,2.3112l0.45095,0.45096c0.89487-0.50965,1.6981-0.89954,2.4098-1.1697,0.71167-0.27007,1.374-0.4063,1.987-0.40867,0.77424,0.00002,1.3288,0.19086,1.6636,0.57253,0.33483,0.38171,0.49823,0.95427,0.49019,1.7177-0.0267,1.0835-0.27437,2.5539-0.74306,4.4114s-0.99831,3.795-1.5888,5.8125c-0.50995,1.7506-0.94993,3.3441-1.32,4.7805-0.37004,1.4364-0.5639,2.5115-0.5816,3.2253,0.11864,2.2397,1.0648,3.9612,2.8383,5.1644,1.7736,1.2032,3.6627,1.8113,5.6674,1.8241,2.9552-0.0649,5.6256-1.3487,8.0112-3.8514s4.3927-5.8346,6.0213-9.9957c-0.40561,2.4675-0.60763,4.5874-0.60609,6.3597,0.005,2.5742,0.4171,4.4685,1.2374,5.6828,0.82021,1.2143,2.0202,1.8158,3.6001,1.8046,1.5783-0.0869,3.5794-0.89957,6.0034-2.438,2.4239-1.5384,4.9323-3.2812,7.5254-5.2283l-0.33822-0.33822c-2.1304,1.576-4.1831,2.9336-6.1584,4.0727-1.9753,1.1392-3.6054,1.7357-4.8901,1.7898-0.91126,0-1.5729-0.31991-1.985-0.95973-0.4121-0.63981-0.61479-1.5995-0.60805-2.8792,0.007-0.9993,0.11435-2.1937,0.32271-3.5832,0.20831-1.3895,0.47653-2.9741,0.80468-4.7538z"/>
   <path id="path4005" d="m389.7,222.69,4.9324,0c0.87322-0.0175,1.6086-0.26694,2.206-0.74816,0.59743-0.48115,0.95847-1.0886,1.0831-1.8223l0.66796-4.0051h-4.921c-1.0195-0.0213-1.8256,0.252-2.4182,0.8198-0.59264,0.5679-0.98444,1.5582-1.1754,2.9711zm-4.5181,26.457c-0.33823,1.8532-0.59189,3.502-0.761,4.9464-0.16911,1.4445-0.25367,2.7269-0.25366,3.8472,0.0282,1.8532,0.47914,3.2201,1.3529,4.1009,0.87372,0.88078,2.0011,1.3176,3.3822,1.3106,1.6394-0.0869,3.8848-0.89956,6.7362-2.438s5.6041-3.2812,8.2582-5.2283l-0.33822-0.33822c-2.1444,1.5431-4.2536,2.7692-6.3275,3.6781-2.074,0.90897-3.7604,1.374-5.0592,1.3952-1.2167,0.0329-2.0528-0.1738-2.5085-0.62006-0.45567-0.44626-0.67175-1.3294-0.64825-2.6494,0.007-1.0146,0.10569-2.1984,0.29595-3.5513,0.19023-1.3529,0.42981-2.8748,0.71871-4.566l5.5242-17.475-0.22548-0.11274c-0.74222,1.0382-1.7663,2.0904-3.0722,3.1567-1.3059,1.0664-2.8373,1.6676-4.5941,1.8038h-7.5536v0.56369l5.9752,0.67644z"/>
   <path id="path4007" d="m406.87,251.62,0-0.5637c0.0282-4.8008,0.9301-8.6152,2.7058-11.443,1.7756-2.8279,4.2559-4.2747,7.4408-4.3405,1.7652,0.0437,3.2641,0.63825,4.4966,1.7838s1.8757,2.5803,1.9295,4.3042c-0.0705,2.9289-1.5925,5.3293-4.566,7.2012-2.9735,1.872-6.9758,2.8913-12.007,3.0581zm0.11274,0.67644c6.2265-0.16441,11.53-1.273,15.91-3.3258,4.3804-2.0528,6.668-4.7397,6.863-8.0609-0.0941-2.0431-1.2406-3.7435-3.4394-5.1012s-4.8855-2.0624-8.0601-2.1141c-5.0121,0.12768-9.1834,1.8674-12.514,5.2192s-5.0593,7.5497-5.1861,12.594c0.11524,3.352,1.5952,6.1418,4.44,8.3692s6.3629,3.3836,10.554,3.4684c2.9334-0.0567,5.6454-0.80894,8.1361-2.2567,2.4906-1.4478,4.927-3.251,7.3092-5.4096l-0.33822-0.33822c-2.1293,1.8139-4.3428,3.2569-6.6405,4.329-2.2978,1.0721-4.7818,1.6208-7.4519,1.6462-2.5934-0.0571-4.7791-0.923-6.5571-2.5976s-2.7866-3.8151-3.0258-6.4216z"/>
   <path id="path4009" d="m435.03,253.54c1.8268,0.0476,3.3471,0.69604,4.5611,1.9454,1.2139,1.2493,1.844,2.814,1.8902,4.6941,0.002,0.63949-0.0576,1.2473-0.17949,1.8233-0.12194,0.57606-0.31957,1.1517-0.59288,1.727,0.92578-0.0234,1.6963-0.34275,2.3115-0.95795,0.61518-0.6152,0.9345-1.3857,0.95794-2.3115-0.063-2.2786-0.92151-4.1746-2.5755-5.6879s-3.7255-2.2987-6.2146-2.3562c-2.4684,0.0581-4.4958,0.85058-6.0821,2.3776s-2.4066,3.4401-2.4608,5.7394c0.10861,3.1286,1.5887,5.7325,4.4402,7.8115s6.4229,3.1581,10.714,3.2373c4.8628-0.0858,8.9098-1.2551,12.141-3.5078,3.2314-2.2528,4.9086-5.0743,5.0318-8.4644-0.25745-4.6995-1.9752-8.254-5.1532-10.663-3.1781-2.4094-6.2717-4.076-9.2807-4.9996-1.9251-0.65323-3.5389-1.3179-4.8415-1.9939-1.3026-0.67599-1.98-1.4893-2.0323-2.4399,0.0754-1.3739,0.80926-2.4216,2.2015-3.143,1.3922-0.72133,2.9904-1.0846,4.7944-1.09,1.5267,0.0893,3.1238,0.64359,4.7914,1.6629,1.6676,1.0194,3.0392,1.9683,4.115,2.8467l0.33822,0.11274,3.2694-8.3427-0.45096-0.22548c-0.35704,0.98884-0.88315,1.8297-1.5784,2.5225-0.69526,0.69291-1.7851,1.0546-3.2694,1.0851-0.35923-0.005-0.78472-0.0579-1.2765-0.15973-0.49178-0.10178-1.023-0.22399-1.5935-0.36665-0.7016-0.17754-1.4174-0.33873-2.1475-0.48358-0.73013-0.1448-1.4252-0.22152-2.085-0.23017-3.1684-0.009-5.814,0.5484-7.9366,1.6708-2.1226,1.1225-3.2253,2.8619-3.3081,5.2182,0.14205,2.6695,1.3687,4.7305,3.68,6.1829,2.3112,1.4525,4.8547,2.6422,7.6305,3.5693,2.1803,0.73175,4.3156,1.9227,6.4058,3.5727,2.0902,1.6501,3.2122,3.9149,3.3661,6.7943-0.0902,2.6317-1.3199,4.822-3.6888,6.5708-2.369,1.7488-5.336,2.6565-8.9009,2.7231-4.0331-0.0691-7.395-1.0113-10.086-2.8266-2.6908-1.8152-4.0881-4.0887-4.1918-6.8205,0.0466-1.9302,0.74692-3.5366,2.101-4.8192s3.0825-1.9484,5.1851-1.9972z"/>
   <path id="path4011" d="m487.56,255.34c-2.0035,1.7287-4.1409,3.1473-6.4121,4.2559-2.2713,1.1086-4.8314,1.6817-7.6804,1.7193-2.3652-0.0399-4.3146-0.97472-5.8484-2.8044-1.5337-1.8297-2.3276-4.3146-2.3816-7.4549,0.0822-4.4321,0.96063-8.0538,2.6353-10.865,1.6746-2.8114,3.6523-4.2629,5.9329-4.3546,1.5009,0.0453,3.013,0.53056,4.5361,1.4556,1.5231,0.92514,3.0174,2.0183,4.4831,3.2794l0.22548,0.11274,3.3822-9.2446-0.45096-0.11274c-0.36173,0.98884-0.90664,1.8297-1.6347,2.5225-0.72814,0.69291-1.8367,1.0546-3.3258,1.0851-0.39035-0.004-0.82863-0.0619-1.3149-0.1738-0.48627-0.1118-0.9906-0.25331-1.513-0.42451-0.50309-0.16546-1.035-0.31207-1.5958-0.43984-0.56082-0.1277-1.078-0.19503-1.5516-0.20198-4.7116,0.0728-8.5353,1.7029-11.471,4.8901-2.9359,3.1873-4.4485,7.4948-4.5378,12.923,0.0752,3.6006,1.3341,6.4614,3.7768,8.5823s5.6182,3.206,9.5265,3.2554c3.2835-0.0798,6.1584-0.87843,8.6246-2.3957s4.7773-3.2741,6.9335-5.2706z"/>
   <path id="path4013" d="m493.6,251.62,0-0.5637c0.0282-4.8008,0.93009-8.6152,2.7058-11.443,1.7756-2.8279,4.2559-4.2747,7.4408-4.3405,1.7652,0.0437,3.2641,0.63825,4.4966,1.7838s1.8757,2.5803,1.9295,4.3042c-0.0705,2.9289-1.5925,5.3293-4.566,7.2012-2.9735,1.872-6.9758,2.8913-12.007,3.0581zm0.11274,0.67644c6.2265-0.16441,11.53-1.273,15.91-3.3258,4.3804-2.0528,6.668-4.7397,6.863-8.0609-0.0941-2.0431-1.2406-3.7435-3.4393-5.1012-2.1988-1.3577-4.8855-2.0624-8.0601-2.1141-5.0121,0.12768-9.1834,1.8674-12.514,5.2192s-5.0593,7.5497-5.1861,12.594c0.11524,3.352,1.5953,6.1418,4.44,8.3692,2.8448,2.2274,6.3629,3.3836,10.554,3.4684,2.9334-0.0567,5.6454-0.80894,8.1361-2.2567,2.4906-1.4478,4.927-3.251,7.3092-5.4096l-0.33822-0.33822c-2.1293,1.8139-4.3428,3.2569-6.6405,4.329-2.2978,1.0721-4.7818,1.6208-7.4519,1.6462-2.5934-0.0571-4.7791-0.923-6.5571-2.5976s-2.7866-3.8151-3.0258-6.4216z"/>
   <path id="path4015" d="m524.4,262.9c0.013-0.20088,0.0804-0.83409,0.20237-1.8996,0.1219-1.0656,0.27539-2.334,0.46047-3.8053,1.2558-6.1414,3.2702-11.27,6.0431-15.387,2.7729-4.1166,5.9867-6.2554,9.6413-6.4164,0.98239,0.054,1.7033,0.62091,2.1628,1.7009,0.45938,1.08,0.68664,2.3496,0.68178,3.8087-0.001,0.89861-0.0851,1.7678-0.25152,2.6077l-1.1274,5.637c-0.74738,3.6917-1.1332,6.6403-1.1574,8.8457-0.0136,1.8222,0.30924,3.1723,0.96866,4.0502,0.65935,0.87794,1.7369,1.3144,3.2327,1.3092,1.5666-0.0798,3.5066-0.87843,5.8202-2.3957,2.3135-1.5173,4.7327-3.2741,7.2576-5.2706l-0.22548-0.33822c-2.1444,1.576-4.2536,2.9336-6.3275,4.0727-2.074,1.1391-3.7604,1.7357-5.0592,1.7897-0.57581,0-0.99065-0.14785-1.2446-0.44356-0.25395-0.2957-0.37829-0.73926-0.37303-1.3307,0.005-0.96031,0.23514-2.3109,0.6897-4.0518,0.45449-1.7409,1.102-3.8575,1.9425-6.3498,0.45128-1.3304,0.87684-2.7694,1.2767-4.3169,0.39977-1.5475,0.61307-2.8143,0.63989-3.8003-0.0353-2.3464-0.81035-4.2207-2.3252-5.6229-1.515-1.4022-3.5584-2.1209-6.1302-2.1561-3.1188,0.0851-5.9698,1.5552-8.553,4.4104s-4.7303,6.5853-6.4414,11.19l0.45096-16.39-0.22548-0.11274c-0.42513,0.94893-1.0123,1.8133-1.7616,2.593-0.74926,0.77981-1.8156,1.1932-3.199,1.2401h-5.637v0.5637l5.5242,0.22548v12.289c-0.81737,4.8126-1.4374,8.1807-1.8602,10.104-0.42278,1.9236-0.81737,3.2906-1.1838,4.1009z"/>
   <path id="path4017" d="m561,236.52-2.142,12.627c-0.23018,1.468-0.41808,2.8162-0.56369,4.0445-0.14563,1.2284-0.22079,2.3229-0.22548,3.2835,0.0329,2.1021,0.64354,3.7322,1.832,4.8901s2.7574,1.7451,4.7069,1.7616c2.1679-0.0822,4.4556-0.87608,6.863-2.3816s4.7797-3.2295,7.1167-5.1719l-0.33822-0.33822c-2.1092,1.5713-4.2606,2.9101-6.4543,4.0164-2.1938,1.1063-3.9506,1.684-5.2706,1.7334-2.3863,0.0188-3.5889-1.7099-3.6077-5.186,0.005-0.90895,0.0798-1.9377,0.22548-3.0862,0.14561-1.1485,0.33351-2.3746,0.56369-3.6781,0.40163-2.297,0.89486-4.4673,1.4797-6.5107,0.58482-2.0434,1.219-4.0445,1.9025-6.0034h10.936l0.33822-1.5784h-10.823c0.86667-2.3816,1.9518-5.2283,3.2554-8.54,1.3035-3.3117,2.3605-5.651,3.1708-7.018h-0.22548-1.5784c-2.1039-0.003-3.9308,0.29141-5.4809,0.88337-1.5501,0.59205-2.4665,1.5002-2.7491,2.7243l-2.7058,11.95h-7.5536l-0.22548,1.5784z"/>
   <path id="path4019" d="m582.45,253.54c1.8268,0.0476,3.3471,0.69604,4.5611,1.9454,1.2139,1.2493,1.844,2.814,1.8902,4.6941,0.002,0.63949-0.0576,1.2473-0.17949,1.8233-0.12194,0.57606-0.31957,1.1517-0.59288,1.727,0.92578-0.0234,1.6963-0.34275,2.3115-0.95795,0.61518-0.6152,0.9345-1.3857,0.95794-2.3115-0.063-2.2786-0.92151-4.1746-2.5755-5.6879s-3.7255-2.2987-6.2146-2.3562c-2.4684,0.0581-4.4958,0.85058-6.0821,2.3776s-2.4066,3.4401-2.4608,5.7394c0.10861,3.1286,1.5887,5.7325,4.4402,7.8115s6.4229,3.1581,10.714,3.2373c4.8628-0.0858,8.9098-1.2551,12.141-3.5078,3.2314-2.2528,4.9086-5.0743,5.0318-8.4644-0.25745-4.6995-1.9752-8.254-5.1532-10.663-3.1781-2.4094-6.2717-4.076-9.2807-4.9996-1.9251-0.65323-3.5389-1.3179-4.8415-1.9939-1.3026-0.67599-1.98-1.4893-2.0323-2.4399,0.0754-1.3739,0.80926-2.4216,2.2015-3.143,1.3922-0.72133,2.9904-1.0846,4.7944-1.09,1.5267,0.0893,3.1238,0.64359,4.7914,1.6629,1.6676,1.0194,3.0392,1.9683,4.115,2.8467l0.33821,0.11274,3.2694-8.3427-0.45096-0.22548c-0.35704,0.98884-0.88315,1.8297-1.5784,2.5225-0.69526,0.69291-1.7851,1.0546-3.2694,1.0851-0.35923-0.005-0.78472-0.0579-1.2765-0.15973-0.49178-0.10178-1.023-0.22399-1.5935-0.36665-0.7016-0.17754-1.4174-0.33873-2.1475-0.48358-0.73013-0.1448-1.4252-0.22152-2.085-0.23017-3.1684-0.009-5.814,0.5484-7.9366,1.6708-2.1226,1.1225-3.2253,2.8619-3.3081,5.2182,0.14205,2.6695,1.3687,4.7305,3.68,6.1829,2.3112,1.4525,4.8547,2.6422,7.6305,3.5693,2.1803,0.73175,4.3156,1.9227,6.4058,3.5727,2.0902,1.6501,3.2122,3.9149,3.3661,6.7943-0.0903,2.6317-1.3199,4.822-3.6888,6.5708-2.369,1.7488-5.336,2.6565-8.9009,2.7231-4.0331-0.0691-7.395-1.0113-10.086-2.8266-2.6908-1.8152-4.0881-4.0887-4.1918-6.8205,0.0466-1.9302,0.74692-3.5366,2.101-4.8192s3.0825-1.9484,5.1851-1.9972z"/>
  </g>
 </g>
 <metadata id="metadata4097">
  <rdf:RDF>
   <cc:Work rdf:about="">
    <dc:title/>
   </cc:Work>
  </rdf:RDF>
 </metadata>
</svg>
